<svg xmlns="http://www.w3.org/2000/svg" viewBox="0 0 452.11 167.63"><defs><style>.cls-1{font-size:117.18px;font-family:Poppins-Medium, Poppins;font-weight:500;}.cls-1,.cls-2{fill:#fff;}</style></defs><g id="Layer_2" data-name="Layer 2"><g id="Layer_1-2" data-name="Layer 1"><text class="cls-1" transform="translate(0 99.43)">Agri</text><polygon class="cls-2" points="315.73 122.2 315.86 122.13 315.05 122.13 315.73 122.2"/><path class="cls-2" d="M277.83,127,273.91,141a2.29,2.29,0,0,0,3.32,2.62L314,123.15Z"/><path class="cls-2" d="M304.15,51.54a19.61,19.61,0,0,0-19.11,0,17.78,17.78,0,0,0-6.86,7.17,22.83,22.83,0,0,0-2.57,11.07A23.35,23.35,0,0,0,278.18,81,18.06,18.06,0,0,0,285,88.22a18.59,18.59,0,0,0,9.53,2.51,18.9,18.9,0,0,0,9.58-2.51A18,18,0,0,0,311.06,81a23.11,23.11,0,0,0,2.56-11.12,22.79,22.79,0,0,0-2.56-11.06A18.18,18.18,0,0,0,304.15,51.54Z"/><path class="cls-2" d="M442,4.41H257.32a10.07,10.07,0,0,0-10.07,10.07v98.58a10.07,10.07,0,0,0,10.07,10.07H442a10.07,10.07,0,0,0,10.07-10.07V14.48A10.07,10.07,0,0,0,442,4.41ZM323.05,98h-9.43V87.55a21.89,21.89,0,0,1-8.25,8.15,24.65,24.65,0,0,1-12.75,3.22,25.41,25.41,0,0,1-13.52-3.68,25.87,25.87,0,0,1-9.53-10.35,32.24,32.24,0,0,1-3.48-15.16,31.55,31.55,0,0,1,3.48-15.11,25.19,25.19,0,0,1,9.58-10.09,26.27,26.27,0,0,1,13.57-3.59,24.9,24.9,0,0,1,12.81,3.18,21.13,21.13,0,0,1,8.09,8V41.86h9.43Zm53.57-7a17,17,0,0,1-7.22,5.79,26,26,0,0,1-10.7,2.09,29,29,0,0,1-11.58-2.2A19.48,19.48,0,0,1,339,90.58a16.35,16.35,0,0,1-3.28-9.07h9.63a9.44,9.44,0,0,0,3.94,6.86A15,15,0,0,0,358.59,91q5.34,0,8.4-2.36a7.2,7.2,0,0,0,3.08-5.94,5.85,5.85,0,0,0-3.28-5.48,46.31,46.31,0,0,0-10.14-3.54,73.71,73.71,0,0,1-10.2-3.33,18,18,0,0,1-6.76-5,13,13,0,0,1-2.81-8.75,13.26,13.26,0,0,1,2.56-7.89A17.32,17.32,0,0,1,346.71,43a26.18,26.18,0,0,1,10.76-2.1q9.31,0,15.06,4.71t6.14,12.91h-9.32a9.64,9.64,0,0,0-3.53-7.07,13.22,13.22,0,0,0-8.66-2.66,13.37,13.37,0,0,0-8,2.15,6.66,6.66,0,0,0-3,5.64A6.17,6.17,0,0,0,348,61.17,13,13,0,0,0,352.5,64,77.37,77.37,0,0,0,360,66.45a79.78,79.78,0,0,1,9.83,3.23,17.17,17.17,0,0,1,6.51,4.76,12.75,12.75,0,0,1,2.82,8.3A14.21,14.21,0,0,1,376.62,91Zm47,7-22-24.79V98H392.3V22.19h9.32V66.76l21.62-24.9h13l-26.44,28L436.35,98Z"/></g></g></svg>